<svg xmlns="http://www.w3.org/2000/svg" viewBox="0 0 400 800" width="400" height="800"><path d="M0 0 C0.6 0.44 1.2 0.89 1.82 1.34 C8.73 6.45 15.24 11.85 21.52 17.71 C23.65 19.67 25.83 21.53 28.06 23.38 C41.13 34.87 50.6 49.11 51.76 66.7 C51.8 67.42 51.84 68.13 51.88 68.87 C52 70.94 52.18 72.99 52.39 75.05 C55.92 112.71 43.49 148.74 26.67 181.74 C19.42 195.99 16.66 210.34 14 226 C13.86 226.85 13.71 227.7 13.56 228.58 C10.94 244.04 8.44 259.51 6 275 C5.92 275.48 5.92 275.48 5.54 277.93 C4.67 283.38 3.83 288.84 3.01 294.3 C2.76 295.92 2.51 297.54 2.26 299.17 C-1.97 326.38 -2.65 354.18 -4.17 381.65 C-5.21 400.33 -6.59 418.92 -8.62 437.52 C-8.98 440.84 -9.34 444.16 -9.69 447.49 C-19.71 540.72 -19.71 540.72 -36.75 579.81 C-37.05 580.5 -37.35 581.19 -37.65 581.9 C-41.56 590.69 -46.34 597.09 -53 604 C-54.85 606.22 -56.57 608.52 -58.25 610.88 C-58.67 611.46 -59.09 612.04 -59.52 612.64 C-62.8 617.39 -65.06 622.15 -67.06 627.57 C-67.86 629.65 -68.68 631.23 -70 633 C-69.63 633.18 -69.63 633.18 -67.75 634.11 C-45.43 645.45 -24.3 661.77 -14.5 685.5 C-10.49 698.19 -11.3 710.93 -17.44 722.78 C-19.14 725.37 -20.96 727.67 -23 730 C-23.38 730.44 -23.76 730.89 -24.15 731.34 C-42.86 752.76 -72.69 760.29 -99.75 764.75 C-100.1 764.81 -100.1 764.81 -101.86 765.1 C-115.28 767.13 -128.95 767.21 -142.5 767.19 C-143.28 767.19 -144.07 767.19 -144.87 767.18 C-207.29 767.02 -280.95 751.41 -327 706.5 C-338.12 695.15 -346.01 682.12 -346.25 665.88 C-346.08 652.35 -341.69 642.02 -332.62 632 C-316.34 616.78 -295.29 609.59 -274.04 604.5 C-271 603.75 -268 602.88 -265 602 C-265.31 601.47 -265.63 600.93 -265.95 600.38 C-267.22 597.5 -267.44 595.01 -267.75 591.88 C-268.47 585.9 -269.96 580.38 -271.88 574.69 C-272.12 573.96 -272.36 573.23 -272.62 572.48 C-274.61 566.75 -274.61 566.75 -276.01 564.06 C-279.62 557.05 -280.26 549.78 -281.07 542.04 C-281.31 539.73 -281.58 537.42 -281.86 535.12 C-283.17 523.61 -282.88 512.52 -282 501 C-281.93 500.04 -281.86 499.08 -281.79 498.09 C-281.24 490.55 -280.61 483.03 -279.94 475.5 C-279.91 475.21 -279.91 475.21 -279.78 473.74 C-277.85 452.33 -274.67 431.31 -270.42 410.23 C-269.41 405.2 -268.52 400.17 -267.75 395.1 C-261.87 357.12 -248.44 319.71 -232.95 284.69 C-210.39 233.72 -198.67 191.41 -215.92 136.95 C-218.33 129.33 -220.49 121.69 -222.44 113.94 C-222.68 112.97 -222.93 112 -223.19 111 C-231.72 76.31 -223.05 38.25 -205 8 C-190.78 -13.43 -161.64 -20.51 -137.96 -25.43 C-135.31 -25.97 -132.66 -26.49 -130 -27 C-128.87 -27.22 -127.75 -27.45 -126.59 -27.68 C-123.73 -28.2 -120.88 -28.62 -118 -29 C-117.35 -29.09 -116.7 -29.18 -116.04 -29.27 C-71.12 -35.24 -36.62 -27.22 0 0 Z M-205 677 C-205.66 678.65 -206.32 680.3 -207 682 C-206.01 682 -205.02 682 -204 682 C-204 680.35 -204 678.7 -204 677 C-204.33 677 -204.66 677 -205 677 Z M-154 684 C-154.33 686.31 -154.66 688.62 -155 691 C-154.01 690.34 -153.02 689.68 -152 689 C-152.16 688.17 -152.16 688.17 -153 684 C-153.33 684 -153.66 684 -154 684 Z " transform="translate(347,32)" fill="#000000"/><path d="M0 0 C0.57 0.32 1.13 0.63 1.71 0.96 C6.5 3.82 10.82 7.78 12.77 13.08 C14.29 19.92 13.74 26.12 12.61 32.96 C12.31 34.76 12.05 36.56 11.78 38.36 C10.48 46.83 8.94 53.17 1.99 58.68 C-9.87 66.53 -28.51 66.1 -42.02 63.63 C-56.18 60.73 -71.68 56.1 -81.12 44.49 C-85.57 36.91 -82.55 25.85 -81.19 17.81 C-81.1 17.29 -81.1 17.29 -80.69 14.62 C-78.47 1.34 -78.47 1.34 -72.62 -3.12 C-52.6 -16.72 -19.87 -12.08 0 0 Z " transform="translate(309,15)" fill="#178048"/></svg>